<svg width="24" height="24" viewBox="0 0 24 24" fill="none" xmlns="http://www.w3.org/2000/svg">
<path d="M8.72222 3V6.4M16.2778 3V6.4M4 9.8H21M15.3333 20V16.6C15.3333 16.1491 15.5323 15.7167 15.8866 15.3979C16.2408 15.0791 16.7213 14.9 17.2222 14.9H21M21 15.75V6.4C21 5.94913 20.801 5.51673 20.4468 5.19792C20.0925 4.87911 19.6121 4.7 19.1111 4.7H5.88889C5.38792 4.7 4.90748 4.87911 4.55324 5.19792C4.19901 5.51673 4 5.94913 4 6.4V18.3C4 18.7509 4.19901 19.1833 4.55324 19.5021C4.90748 19.8209 5.38792 20 5.88889 20H16.2778L21 15.75Z" stroke="#E56E55" stroke-width="2" stroke-linecap="round" stroke-linejoin="round"/>
</svg>
