<svg width="24" height="24" viewBox="0 0 24 24" fill="none" xmlns="http://www.w3.org/2000/svg">
<path d="M11.999 19.9997H20.999M14.999 4.99973L17.999 7.99973M16.375 3.62173C16.7731 3.22364 17.313 3 17.876 3C18.439 3 18.9789 3.22364 19.377 3.62173C19.7751 4.01982 19.9987 4.55975 19.9987 5.12273C19.9987 5.68572 19.7751 6.22564 19.377 6.62373L7.367 18.6347C7.1291 18.8726 6.83502 19.0467 6.512 19.1407L3.64 19.9787C3.55395 20.0038 3.46274 20.0053 3.37591 19.9831C3.28908 19.9608 3.20983 19.9157 3.14645 19.8523C3.08307 19.7889 3.03789 19.7097 3.01564 19.6228C2.9934 19.536 2.9949 19.4448 3.02 19.3587L3.858 16.4867C3.95222 16.1641 4.12625 15.8704 4.364 15.6327L16.375 3.62173Z" stroke="#E56E55" stroke-width="2" stroke-linecap="round" stroke-linejoin="round"/>
</svg>
