<svg width="16" height="16" viewBox="0 0 16 16" fill="none" xmlns="http://www.w3.org/2000/svg">
<path d="M5.8028 6.25386L8.8628 3.19386C8.98771 3.06969 9.15668 3 9.3328 3C9.50892 3 9.67789 3.06969 9.8028 3.19386C9.86529 3.25584 9.91488 3.32957 9.94873 3.41081C9.98257 3.49205 10 3.57919 10 3.6672C10 3.7552 9.98257 3.84234 9.94873 3.92358C9.91488 4.00482 9.86529 4.07855 9.8028 4.14053L6.73613 7.19386C6.67365 7.25584 6.62405 7.32957 6.59021 7.41081C6.55636 7.49205 6.53893 7.57919 6.53893 7.6672C6.53893 7.7552 6.55636 7.84234 6.59021 7.92358C6.62405 8.00482 6.67365 8.07855 6.73613 8.14053L9.8028 11.1939C9.92834 11.3185 9.99921 11.4879 9.99984 11.6648C10.0005 11.8417 9.93079 12.0117 9.80613 12.1372C9.68148 12.2627 9.51207 12.3336 9.33516 12.3342C9.15825 12.3349 8.98834 12.2652 8.8628 12.1405L5.8028 9.08053C5.42827 8.70553 5.21789 8.1972 5.21789 7.6672C5.21789 7.13719 5.42827 6.62886 5.8028 6.25386Z" fill="#E56E55"/>
</svg>
