<svg width="16" height="16" viewBox="0 0 16 16" fill="none" xmlns="http://www.w3.org/2000/svg">
<path d="M10.1972 6.25386L7.1372 3.19386C7.01229 3.06969 6.84332 3 6.6672 3C6.49108 3 6.32211 3.06969 6.1972 3.19386C6.13471 3.25584 6.08512 3.32957 6.05127 3.41081C6.01743 3.49205 6 3.57919 6 3.6672C6 3.7552 6.01743 3.84234 6.05127 3.92358C6.08512 4.00482 6.13471 4.07855 6.1972 4.14053L9.26387 7.19386C9.32635 7.25584 9.37595 7.32957 9.40979 7.41081C9.44364 7.49205 9.46107 7.57919 9.46107 7.6672C9.46107 7.7552 9.44364 7.84234 9.40979 7.92358C9.37595 8.00482 9.32635 8.07855 9.26387 8.14053L6.1972 11.1939C6.07166 11.3185 6.00079 11.4879 6.00016 11.6648C5.99954 11.8417 6.06921 12.0117 6.19387 12.1372C6.31852 12.2627 6.48793 12.3336 6.66484 12.3342C6.84175 12.3349 7.01166 12.2652 7.1372 12.1405L10.1972 9.08053C10.5717 8.70553 10.7821 8.1972 10.7821 7.6672C10.7821 7.13719 10.5717 6.62886 10.1972 6.25386Z" fill="#E56E55"/>
</svg>
